<?xml version="1.0" standalone="no"?>
<!DOCTYPE svg PUBLIC "-//W3C//DTD SVG 20010904//EN"
 "http://www.w3.org/TR/2001/REC-SVG-20010904/DTD/svg10.dtd">
<svg version="1.0" xmlns="http://www.w3.org/2000/svg"
 width="96.000000pt" height="96.000000pt" viewBox="0 0 96.000000 96.000000"
 preserveAspectRatio="xMidYMid meet">
<metadata>
Created by potrace 1.14, written by Peter Selinger 2001-2017
</metadata>
<g transform="translate(0.000000,96.000000) scale(0.100000,-0.100000)"
fill="#000000" stroke="none">
<path d="M251 754 c-37 -15 -68 -48 -77 -81 -4 -14 -16 -23 -38 -27 -55 -10
-100 -85 -112 -184 -9 -81 1 -125 37 -166 56 -64 140 -65 200 -1 l31 33 29
-33 c57 -64 142 -63 199 2 17 19 33 34 34 32 2 -2 9 -14 15 -26 13 -25 79 -61
108 -59 39 4 94 36 112 68 11 18 39 44 62 58 70 42 84 69 83 163 0 63 -6 93
-23 131 -27 57 -36 68 -78 90 -50 25 -107 -5 -143 -76 -7 -16 -16 -28 -20 -28
-4 0 -20 20 -35 44 -25 39 -74 74 -100 71 -35 -5 -69 -31 -93 -70 -15 -24 -29
-44 -32 -44 -3 0 -18 21 -35 46 -38 58 -78 76 -124 57z m76 -46 c43 -47 44
-62 13 -100 -16 -19 -32 -47 -36 -63 l-7 -28 -23 39 c-37 62 -56 84 -72 84
-12 0 -12 4 3 28 40 64 86 79 122 40z m273 -19 l30 -42 -27 -31 c-14 -17 -32
-46 -40 -65 l-14 -33 -22 43 c-11 24 -31 53 -44 64 -29 26 -29 36 3 74 38 46
76 42 114 -10z m253 9 c35 -48 57 -116 57 -175 0 -48 -4 -56 -42 -95 l-43 -43
-3 40 c-5 71 -41 162 -76 193 -36 31 -36 44 2 85 36 38 74 36 105 -5z m-638
-109 c14 -18 29 -45 32 -61 3 -15 10 -31 14 -34 13 -8 11 -121 -2 -147 -6 -12
-23 -33 -38 -45 -21 -19 -34 -23 -68 -19 -89 10 -128 110 -87 227 38 108 97
140 149 79z m242 16 c28 -20 60 -88 68 -147 15 -101 -22 -167 -96 -175 -35 -4
-50 0 -71 16 -32 26 -61 103 -49 134 5 12 11 43 15 68 8 54 56 119 90 119 12
0 31 -7 43 -15z m259 -3 c35 -29 54 -69 62 -129 11 -84 0 -132 -37 -165 -44
-39 -91 -38 -134 3 -31 30 -32 33 -32 118 1 67 5 93 20 116 48 76 80 91 121
57z"/>
</g>
</svg>
